<?xml version="1.0" encoding="UTF-8" standalone="no"?>
<!DOCTYPE svg PUBLIC "-//W3C//DTD SVG 1.1//EN" "http://www.w3.org/Graphics/SVG/1.1/DTD/svg11.dtd">
<svg version="1.1" xmlns="http://www.w3.org/2000/svg" xmlns:xlink="http://www.w3.org/1999/xlink" preserveAspectRatio="xMidYMid meet" viewBox="0 0 640 640" width="640" height="640"><defs><path d="M416 227.14C416 275.76 376.52 315.24 327.9 315.24C279.28 315.24 239.81 275.76 239.81 227.14C239.81 178.52 279.28 139.05 327.9 139.05C376.52 139.05 416 178.52 416 227.14Z" id="gBKv4w1wV"></path><path d="M389.84 178.46L404.95 165.64L420.65 152.81L433.43 139.99L442.15 128.88L439.83 156.23L433.43 179.31L424.72 204.1L419.48 216.92L412.51 234.87L407.28 247.7" id="c1dDjUFXI"></path><path d="M305.19 221.16C305.19 228.52 298.78 234.5 290.9 234.5C283.01 234.5 276.61 228.52 276.61 221.16C276.61 213.8 283.01 207.83 290.9 207.83C298.78 207.83 305.19 213.8 305.19 221.16Z" id="alHjNP7S4"></path><path d="M308.93 199.94C311.15 200.54 312.46 202.82 311.86 205.04C311.2 207.45 310.33 210.66 309.68 213.07C309.08 215.29 306.79 216.6 304.58 216C295.28 213.48 271.41 207.02 262.12 204.5C259.9 203.9 258.59 201.61 259.19 199.39C259.85 196.98 260.72 193.77 261.37 191.36C261.97 189.14 264.26 187.83 266.47 188.43C275.77 190.95 299.63 197.42 308.93 199.94Z" id="f5IXgJXeXX"></path><path d="M347.72 266.12C349.97 265.65 352.18 267.09 352.65 269.34C353.16 271.79 353.84 275.05 354.35 277.49C354.82 279.74 353.38 281.94 351.13 282.41C341.71 284.39 317.51 289.46 308.08 291.43C305.83 291.9 303.63 290.46 303.16 288.21C302.64 285.77 301.96 282.51 301.45 280.06C300.98 277.81 302.42 275.61 304.67 275.14C314.1 273.16 338.3 268.1 347.72 266.12Z" id="b8yxsRvhE"></path><path d="M339.99 199.94C337.77 200.54 336.46 202.82 337.06 205.04C337.71 207.45 338.58 210.66 339.24 213.07C339.84 215.29 342.12 216.6 344.34 216C353.63 213.48 377.5 207.02 386.8 204.5C389.01 203.9 390.32 201.61 389.72 199.39C389.07 196.98 388.2 193.77 387.55 191.36C386.95 189.14 384.66 187.83 382.44 188.43C373.15 190.95 349.28 197.42 339.99 199.94Z" id="f24NVbFBFS"></path><path d="M265.96 178.46L250.85 165.64L235.16 152.81L222.37 139.99L213.65 128.88L215.98 156.23L222.37 179.31L231.09 204.1L236.32 216.92L243.29 234.87L248.52 247.7" id="nfjg08ykt"></path><path d="M373.49 221.16C373.49 228.52 367.09 234.5 359.2 234.5C351.32 234.5 344.91 228.52 344.91 221.16C344.91 213.8 351.32 207.83 359.2 207.83C367.09 207.83 373.49 213.8 373.49 221.16Z" id="aD4ybm9Vs"></path></defs><g><g><g><use xlink:href="#gBKv4w1wV" opacity="1" fill="#6e9032" fill-opacity="1"></use></g><g><use xlink:href="#c1dDjUFXI" opacity="1" fill="#6e9032" fill-opacity="1"></use><g><use xlink:href="#c1dDjUFXI" opacity="1" fill-opacity="0" stroke="#6e9032" stroke-width="1" stroke-opacity="1"></use></g></g><g><use xlink:href="#alHjNP7S4" opacity="1" fill="#e1c920" fill-opacity="1"></use></g><g><use xlink:href="#f5IXgJXeXX" opacity="1" fill="#e1c920" fill-opacity="1"></use></g><g><use xlink:href="#b8yxsRvhE" opacity="1" fill="#746a25" fill-opacity="1"></use></g><g><use xlink:href="#f24NVbFBFS" opacity="1" fill="#e1c920" fill-opacity="1"></use></g><g><use xlink:href="#nfjg08ykt" opacity="1" fill="#6e9032" fill-opacity="1"></use><g><use xlink:href="#nfjg08ykt" opacity="1" fill-opacity="0" stroke="#6e9032" stroke-width="1" stroke-opacity="1"></use></g></g><g><use xlink:href="#aD4ybm9Vs" opacity="1" fill="#e1c920" fill-opacity="1"></use></g></g></g></svg>