<?xml version="1.0" encoding="UTF-8" standalone="no"?>
<!DOCTYPE svg PUBLIC "-//W3C//DTD SVG 1.1//EN" "http://www.w3.org/Graphics/SVG/1.1/DTD/svg11.dtd">
<svg version="1.1" xmlns="http://www.w3.org/2000/svg" xmlns:xlink="http://www.w3.org/1999/xlink" preserveAspectRatio="xMidYMid meet" viewBox="0 0 640 640" width="640" height="640"><defs><path d="M263.96 178.46L248.85 165.64L233.16 152.81L220.37 139.99L211.65 128.88L213.98 156.23L220.37 179.31L229.09 204.1L234.32 216.92L241.29 234.87L246.52 247.7" id="c5cCnBuzin"></path><path d="M263.96 178.46L248.85 165.64L233.16 152.81L220.37 139.99L211.65 128.88L213.98 156.23L220.37 179.31L229.09 204.1L234.32 216.92L241.29 234.87L246.52 247.7" id="dlFUDOpJA"></path><path d="M389.84 178.46L404.95 165.64L420.65 152.81L433.43 139.99L442.15 128.88L439.83 156.23L433.43 179.31L424.72 204.1L419.48 216.92L412.51 234.87L407.28 247.7" id="aLcMz4IJK"></path><path d="M389.84 178.46L404.95 165.64L420.65 152.81L433.43 139.99L442.15 128.88L439.83 156.23L433.43 179.31L424.72 204.1L419.48 216.92L412.51 234.87L407.28 247.7" id="d7KD5wI3QO"></path><path d="M327.9 315.24C279.28 315.24 239.81 275.76 239.81 227.14C239.81 178.52 279.28 139.05 327.9 139.05C376.52 139.05 416 178.52 416 227.14C416 275.76 376.52 315.24 327.9 315.24Z" id="br9gsjTq4"></path><path d="M290.9 234.5C283.01 234.5 276.61 228.52 276.61 221.16C276.61 213.8 283.01 207.83 290.9 207.83C298.78 207.83 305.19 213.8 305.19 221.16C305.19 228.52 298.78 234.5 290.9 234.5Z" id="aV924n7CJ"></path><path d="M352.72 274.62C352.72 277.11 352.72 280.44 352.72 282.94C352.72 285.24 350.86 287.1 348.56 287.1C338.93 287.1 314.21 287.1 304.58 287.1C302.28 287.1 300.41 285.24 300.41 282.94C300.41 280.44 300.41 277.11 300.41 274.62C300.41 272.32 302.28 270.45 304.58 270.45C314.21 270.45 338.93 270.45 348.56 270.45C350.86 270.45 352.72 272.32 352.72 274.62Z" id="bUW30QKt"></path><path d="M359.2 234.5C351.32 234.5 344.91 228.52 344.91 221.16C344.91 213.8 351.32 207.83 359.2 207.83C367.09 207.83 373.49 213.8 373.49 221.16C373.49 228.52 367.09 234.5 359.2 234.5Z" id="asFLD8hJC"></path><path d="M359.2 234.5C351.32 234.5 344.91 228.52 344.91 221.16C344.91 213.8 351.32 207.83 359.2 207.83C367.09 207.83 373.49 213.8 373.49 221.16C373.49 228.52 367.09 234.5 359.2 234.5Z" id="b8JoYlZp5"></path><path d="M359.2 231.23C353.25 231.23 348.41 226.72 348.41 221.16C348.41 215.6 353.25 211.09 359.2 211.09C365.16 211.09 369.99 215.6 369.99 221.16C369.99 226.72 365.16 231.23 359.2 231.23Z" id="bQ3wWiYHO"></path><path d="M337.06 208.04C337.71 210.45 338.58 213.66 339.24 216.07C339.84 218.29 342.12 219.6 344.34 219C353.63 216.48 377.5 210.02 386.8 207.5C389.01 206.9 390.32 204.61 389.72 202.39C389.07 199.98 388.2 196.77 387.55 194.36C386.95 192.14 384.66 190.83 382.44 191.43C373.15 193.95 349.28 200.42 339.99 202.94C337.77 203.54 336.46 205.82 337.06 208.04Z" id="dViw77vsa"></path><path d="M290.9 231.23C284.94 231.23 280.11 226.72 280.11 221.16C280.11 215.6 284.94 211.09 290.9 211.09C296.85 211.09 301.69 215.6 301.69 221.16C301.69 226.72 296.85 231.23 290.9 231.23Z" id="imZEA2MJD"></path><path d="M311.61 208.04C310.95 210.45 310.08 213.66 309.43 216.07C308.83 218.29 306.54 219.6 304.33 219C295.03 216.48 271.16 210.02 261.87 207.5C259.65 206.9 258.34 204.61 258.94 202.39C259.6 199.98 260.47 196.77 261.12 194.36C261.72 192.14 264.01 190.83 266.22 191.43C275.52 193.95 299.38 200.42 308.68 202.94C310.9 203.54 312.21 205.82 311.61 208.04Z" id="a1HogUH323"></path><path d="M306.42 270.45L311.75 270.45L317.09 270.45L314.42 276.73L311.75 283L309.09 276.73L306.42 270.45Z" id="b5gNwaYz8"></path><path d="M347.58 270.45L342.25 270.45L336.91 270.45L339.58 276.73L342.25 283L344.91 276.73L347.58 270.45Z" id="e2BVS4E2Q1"></path></defs><g><g><g><use xlink:href="#c5cCnBuzin" opacity="1" fill="#689519" fill-opacity="1"></use><g><use xlink:href="#c5cCnBuzin" opacity="1" fill-opacity="0" stroke="#000000" stroke-width="1" stroke-opacity="0"></use></g></g><g><use xlink:href="#dlFUDOpJA" opacity="1" fill="#78ab1d" fill-opacity="1"></use></g><g><use xlink:href="#aLcMz4IJK" opacity="1" fill="#689519" fill-opacity="1"></use></g><g><use xlink:href="#d7KD5wI3QO" opacity="1" fill="#78ab1d" fill-opacity="1"></use></g><g><use xlink:href="#br9gsjTq4" opacity="1" fill="#81ba1e" fill-opacity="1"></use><g><use xlink:href="#br9gsjTq4" opacity="1" fill-opacity="0" stroke="#000000" stroke-width="1" stroke-opacity="0"></use></g></g><g><use xlink:href="#aV924n7CJ" opacity="1" fill="#ffffff" fill-opacity="1"></use><g><use xlink:href="#aV924n7CJ" opacity="1" fill-opacity="0" stroke="#000000" stroke-width="1" stroke-opacity="0"></use></g></g><g><use xlink:href="#bUW30QKt" opacity="1" fill="#c03629" fill-opacity="1"></use><g><use xlink:href="#bUW30QKt" opacity="1" fill-opacity="0" stroke="#000000" stroke-width="1" stroke-opacity="0"></use></g></g><g><use xlink:href="#asFLD8hJC" opacity="1" fill="#000000" fill-opacity="1"></use><g><use xlink:href="#asFLD8hJC" opacity="1" fill-opacity="0" stroke="#000000" stroke-width="1" stroke-opacity="0"></use></g></g><g><use xlink:href="#b8JoYlZp5" opacity="1" fill="#ffffff" fill-opacity="1"></use><g><use xlink:href="#b8JoYlZp5" opacity="1" fill-opacity="0" stroke="#000000" stroke-width="1" stroke-opacity="0"></use></g></g><g><use xlink:href="#bQ3wWiYHO" opacity="1" fill="#000000" fill-opacity="1"></use><g><use xlink:href="#bQ3wWiYHO" opacity="1" fill-opacity="0" stroke="#000000" stroke-width="1" stroke-opacity="0"></use></g></g><g><use xlink:href="#dViw77vsa" opacity="1" fill="#e1c920" fill-opacity="1"></use><g><use xlink:href="#dViw77vsa" opacity="1" fill-opacity="0" stroke="#000000" stroke-width="1" stroke-opacity="0"></use></g></g><g><use xlink:href="#imZEA2MJD" opacity="1" fill="#000000" fill-opacity="1"></use><g><use xlink:href="#imZEA2MJD" opacity="1" fill-opacity="0" stroke="#000000" stroke-width="1" stroke-opacity="0"></use></g></g><g><use xlink:href="#a1HogUH323" opacity="1" fill="#e1c920" fill-opacity="1"></use><g><use xlink:href="#a1HogUH323" opacity="1" fill-opacity="0" stroke="#000000" stroke-width="1" stroke-opacity="0"></use></g></g><g><use xlink:href="#b5gNwaYz8" opacity="1" fill="#ffffff" fill-opacity="1"></use><g><use xlink:href="#b5gNwaYz8" opacity="1" fill-opacity="0" stroke="#000000" stroke-width="1" stroke-opacity="0"></use></g></g><g><use xlink:href="#e2BVS4E2Q1" opacity="1" fill="#ffffff" fill-opacity="1"></use><g><use xlink:href="#e2BVS4E2Q1" opacity="1" fill-opacity="0" stroke="#000000" stroke-width="1" stroke-opacity="0"></use></g></g></g></g></svg>